HIERARCHY
ROOT root
{
	OFFSET 0.000000 0.000000 0.000000
	CHANNELS 6 Xposition Yposition Zposition Zrotation Yrotation Xrotation
	JOINT lhip
	{
		OFFSET 0.058581 -0.082280 -0.017664
		CHANNELS 3 Zrotation Yrotation Xrotation
		JOINT lknee
		{
			OFFSET 0.043451 -0.386469 0.008037
			CHANNELS 3 Zrotation Yrotation Xrotation
			JOINT lankle
			{
				OFFSET -0.014790 -0.426874 -0.037428
				CHANNELS 3 Zrotation Yrotation Xrotation
				JOINT ltoe
				{
					OFFSET 0.041054 -0.060286 0.122042
					CHANNELS 3 Zrotation Yrotation Xrotation
					End Site
					{
						OFFSET 0.000000 0.000000 0.000000
					}
				}
			}
		}
	}
	JOINT rhip
	{
		OFFSET -0.060310 -0.090513 -0.013543
		CHANNELS 3 Zrotation Yrotation Xrotation
		JOINT rknee
		{
			OFFSET -0.043257 -0.383688 -0.004843
			CHANNELS 3 Zrotation Yrotation Xrotation
			JOINT rankle
			{
				OFFSET 0.019056 -0.420046 -0.034562
				CHANNELS 3 Zrotation Yrotation Xrotation
				JOINT rtoe
				{
					OFFSET -0.034840 -0.062106 0.130323
					CHANNELS 3 Zrotation Yrotation Xrotation
					End Site
					{
						OFFSET 0.000000 0.000000 0.000000
					}
				}
			}
		}
	}
	JOINT lowerback
	{
		OFFSET 0.004439 0.124404 -0.038385
		CHANNELS 3 Zrotation Yrotation Xrotation
		JOINT upperback
		{
			OFFSET 0.004488 0.137956 0.026820
			CHANNELS 3 Zrotation Yrotation Xrotation
			JOINT chest
			{
				OFFSET -0.002265 0.056032 0.002855
				CHANNELS 3 Zrotation Yrotation Xrotation
				JOINT lowerneck
				{
					OFFSET -0.013390 0.211636 -0.033468
					CHANNELS 3 Zrotation Yrotation Xrotation
					JOINT upperneck
					{
						OFFSET 0.010113 0.088937 0.050410
						CHANNELS 3 Zrotation Yrotation Xrotation
						End Site
						{
							OFFSET 0.000000 0.000000 0.000000
						}
					}
				}
				JOINT lclavicle
				{
					OFFSET 0.071702 0.114000 -0.018898
					CHANNELS 3 Zrotation Yrotation Xrotation
					JOINT lshoulder
					{
						OFFSET 0.122921 0.045205 -0.019046
						CHANNELS 3 Zrotation Yrotation Xrotation
						JOINT lelbow
						{
							OFFSET 0.255332 -0.015649 -0.022946
							CHANNELS 3 Zrotation Yrotation Xrotation
							JOINT lwrist
							{
								OFFSET 0.265709 0.012698 -0.007375
								CHANNELS 3 Zrotation Yrotation Xrotation
								End Site
								{
									OFFSET 0.000000 0.000000 0.000000
								}
							}
						}
					}
				}
				JOINT rclavicle
				{
					OFFSET -0.082954 0.112472 -0.023707
					CHANNELS 3 Zrotation Yrotation Xrotation
					JOINT rshoulder
					{
						OFFSET -0.113228 0.046853 -0.008472
						CHANNELS 3 Zrotation Yrotation Xrotation
						JOINT relbow
						{
							OFFSET -0.260127 -0.014369 -0.031269
							CHANNELS 3 Zrotation Yrotation Xrotation
							JOINT rwrist
							{
								OFFSET -0.269108 0.006794 -0.006027
								CHANNELS 3 Zrotation Yrotation Xrotation
								End Site
								{
									OFFSET 0.000000 0.000000 0.000000
								}
							}
						}
					}
				}
			}
		}
	}
}
MOTION
Frames: 7
Frame Time: 0.033333
-0.173274 0.932737 1.015937 -0.436377 -1.468658 86.529701 1.392200 0.655557 0.176827 -1.739588 -4.944796 8.929943 2.851322 9.877838 -11.241297 0.000000 -0.000000 0.000000 1.577950 -0.864616 1.315306 1.671161 3.880439 10.962513 3.143256 -2.126381 -11.545650 0.000000 -0.000000 0.000000 -0.633884 1.481599 9.989637 1.301081 -2.377851 1.799763 0.539588 -1.438750 4.244456 3.187594 4.664070 -1.832795 -0.609775 -0.548788 4.480454 -27.160799 3.994011 2.341819 -54.087632 -4.684816 7.649820 11.784256 -31.431425 2.587387 0.234095 -3.220423 -3.752772 29.962037 0.149777 2.355676 58.418529 4.917184 12.570134 -23.270839 31.311202 -10.565876 2.779142 3.041753 -5.009237 
-0.179231 0.929951 1.015668 -0.764518 -1.712396 86.248081 1.416495 0.065596 -0.849183 -2.005080 -3.973870 12.076249 3.050537 10.359183 -12.152742 0.000000 -0.000000 0.000000 1.650633 -0.614068 1.756981 1.785558 3.785322 11.160737 2.961085 -2.013046 -12.131018 0.000000 -0.000000 0.000000 -0.363153 1.692653 10.423528 1.295093 -2.530583 1.553074 0.391079 -1.609153 4.559851 3.017240 4.967089 -2.432667 -0.913338 -0.477289 4.661938 -27.683060 4.727151 2.890446 -54.485455 -4.695166 7.589836 12.209410 -31.889110 2.594969 0.473532 -3.418490 -4.054964 29.873597 0.052207 2.004018 60.310078 4.639453 13.419980 -22.486156 30.215842 -9.224338 2.555824 2.772058 -5.678762 
-0.184729 0.926507 1.015491 -0.959958 -1.777492 85.923446 1.409537 -0.656482 -2.676754 -1.957696 -2.552326 16.905852 3.061909 11.168160 -13.095904 0.000000 -0.000000 0.000000 1.889300 -0.819035 2.695283 1.757781 3.920777 10.684246 2.914056 -1.778397 -12.342627 0.000000 -0.000000 0.000000 0.111661 2.066183 10.978926 1.245689 -2.758980 1.168762 0.276033 -1.717769 4.846076 2.822746 4.776231 -2.965928 -0.955692 -0.319357 4.964572 -27.938048 5.091268 2.683834 -55.448081 -4.407882 7.698174 12.567162 -32.035407 3.184273 0.706169 -3.491677 -3.970977 29.838981 0.004720 1.772023 61.218034 4.335853 13.763119 -21.396142 29.349602 -7.898074 2.164623 2.723106 -5.795467 
-0.190856 0.920400 1.015556 -1.382792 -1.752220 85.368100 1.326907 -1.362026 -5.176627 -1.481012 -0.010921 23.114367 3.461546 12.194552 -14.078173 0.000000 -0.000000 0.000000 2.184403 -1.268555 4.405721 1.672897 4.380929 9.524641 3.037815 -1.320229 -12.431185 0.000000 -0.000000 0.000000 0.730075 2.782119 11.709198 1.264592 -2.850202 0.734029 0.233433 -1.688548 5.221549 2.578211 4.275586 -3.579483 -0.886535 -0.194303 5.359678 -28.438197 5.310063 2.520416 -56.611124 -4.298073 7.955505 12.790799 -32.078375 3.780514 1.287181 -3.428395 -3.557950 29.678916 0.089237 1.655220 61.170984 3.919314 14.036098 -20.112878 28.502379 -6.753598 1.581005 2.732509 -5.593754 
-0.194466 0.915787 1.015622 -1.925481 -1.774259 85.083728 1.276209 -1.605470 -6.650942 -1.339998 1.435875 26.130027 3.657476 12.610052 -14.234785 0.000000 -0.000000 0.000000 2.296320 -1.497514 5.445645 1.618773 4.913449 8.750470 3.078180 -1.011709 -12.443766 0.000000 -0.000000 0.000000 0.961788 3.248175 11.996402 1.224834 -2.719464 0.573515 0.227545 -1.558444 5.390419 2.527233 4.008567 -3.904881 -0.723202 -0.164660 5.683327 -28.615782 5.414987 2.604026 -57.299180 -4.232752 8.110938 12.922819 -32.160939 3.901549 1.612327 -3.496099 -3.585359 29.491274 0.291575 1.772925 60.729974 3.710301 14.218660 -19.232118 28.104604 -5.960054 1.336926 2.806670 -5.280698 
-0.198556 0.910097 1.015589 -2.773499 -1.849088 84.911904 1.124376 -2.015365 -8.522787 -1.566897 2.640443 28.794751 3.715543 12.592678 -13.863227 0.000000 -0.000000 0.000000 2.358602 -1.611423 6.351429 1.592483 5.593303 8.103959 3.017381 -0.675378 -12.355275 0.000000 -0.000000 0.000000 1.098102 3.825226 12.326141 1.162645 -2.486093 0.231763 0.241474 -1.282332 5.622634 2.577975 3.710624 -4.301199 -0.579864 -0.069171 5.904270 -28.811572 5.792486 2.336439 -58.018220 -4.162001 8.479922 12.624568 -32.333754 4.569130 2.045014 -3.640201 -3.846433 29.065455 0.371866 1.805285 60.040593 3.543134 14.729179 -18.130680 27.775323 -4.773710 1.061599 2.956647 -4.977848 
-0.202989 0.903105 1.014892 -4.004804 -1.886359 84.678091 0.829363 -2.505569 -10.618958 -2.173819 3.263801 30.391408 3.433461 12.181455 -13.168922 0.000000 -0.000000 0.000000 2.507357 -1.838747 7.243738 1.580622 6.755051 7.645182 2.582026 -0.297188 -12.159863 0.000000 -0.000000 0.000000 1.291980 4.439789 12.890904 1.032747 -2.233896 -0.042704 0.219107 -0.919576 5.670543 2.690857 3.450990 -4.653788 -0.414179 0.180446 5.734169 -29.332875 6.062934 1.522232 -58.256333 -3.630510 8.713018 11.874501 -32.551885 5.360126 2.229573 -3.740477 -3.846738 28.747335 0.537937 1.722552 58.503842 3.544754 15.072053 -16.439338 27.589461 -3.144158 1.023997 3.138632 -4.248894 
